<?xml version="1.0" encoding="UTF-8"?>
<svg id="Livello_2" data-name="Livello 2" xmlns="http://www.w3.org/2000/svg" xmlns:xlink="http://www.w3.org/1999/xlink" viewBox="0 0 391.33 450">
  <defs>
    <style>
      .cls-1, .cls-2, .cls-3 {
        fill-rule: evenodd;
      }

      .cls-2 {
        fill: url(#GradientFill_1);
      }

      .cls-3 {
        fill: #f7772d;
      }
    </style>
    <linearGradient id="GradientFill_1" data-name="GradientFill 1" x1="366.89" y1="519.48" x2="43.26" y2="-41.07" gradientUnits="userSpaceOnUse">
      <stop offset="0" stop-color="#f4763c"/>
      <stop offset="1" stop-color="#ffde43"/>
    </linearGradient>
  </defs>
  <g id="Layer_3" data-name="Layer 3">
    <path class="cls-2" d="M239.85,440.84c20.31,1.6,39.86,7.38,55.04,5.21,24.02-3.43,22.65-25.4,22.65-38.44s9.34-12.2,13.45-14.94c4.12-2.75,6.11-11.14,12.29-13.88,6.18-2.75,3.09-13.04,3.09-20.59s22.65-3.43,34.32-2.75c11.67.69,3.43-43.24-3.43-87.17-6.87-43.93,43-93.56-12.36-179.83C309.54,2.18,165.84-29.61,76.61,32.17-12.62,93.94-4.38,169.44,6.6,242.2c3.74,24.8,1.9,42.41-2.14,54.87v.03c-9.5,47.51,44.83,56.55,59.76,17.55,5.93-19.18,6.24-40.94.19-76.84h0c-7.68-32.77-3.1-68.44,15.59-99.58,38.11-63.47,120.47-84.02,183.94-45.9,63.47,38.12,84.02,120.47,45.91,183.94-18.71,31.14-48.05,51.93-80.58,60.55h0c-34.53,11.54-53.6,22.03-67.73,36.27-6.18,6.23-12.47,13.91-17.6,20.58l-.02.03c-11.24,15.53-2.42,37.28,10.4,45.31,12.83,8.02,29.29-8.11,85.5,1.83h0Z"/>
    <path class="cls-3" d="M292.19,114.95c40.47,42.6,49.39,108.49,17.67,161.31-18.7,31.14-48.04,51.93-80.57,60.56h0c-34.53,11.54-53.6,22.03-67.73,36.27-6.18,6.23-12.47,13.9-17.59,20.58l-.02.03c-9.08,12.55-5.07,29.15,3.57,39.29,45.71-87.29,71.26-48.29,132.36-94.43,74.07-55.94,73-165.66,12.35-223.61h-.02Z"/>
    <path class="cls-1" d="M46.43,361.02l10.92,7.24c11.24-16.92,41.23-62.27,64.31-99.28-.41-.46-.82-.91-1.22-1.36h0c-11.85-13.5-17.41-27.37-18.77-39.86-1.41-12.96,1.72-24.46,7.16-32.66,1.81-2.74,3.9-5.14,6.18-7.14,6.92-6.08,16.55-8.3,25.55-6.89,5.15.8,10.13,2.79,14.31,5.91,4.33,3.23,7.81,7.66,9.79,13.23,2.99,8.42,2.45,19.23-4.12,32.06-4.18,8.16-11.36,20.37-19.95,34.35,3.63,3.15,7.73,6.27,12.33,9.32,4.61,3.06,9.08,5.62,13.39,7.73,9.54-13.36,17.98-24.73,23.87-31.76,9.25-11.06,19.01-15.76,27.92-16.29,5.91-.35,11.34,1.14,16,3.86,4.51,2.64,8.28,6.45,11.02,10.87,4.79,7.73,6.49,17.45,3.6,26.21h0c-.95,2.88-2.35,5.73-4.17,8.47-5.43,8.2-14.8,15.57-27.29,19.32-12.02,3.62-26.97,3.9-44.01-1.76h0c-.57-.18-1.15-.38-1.73-.58-25.1,35.68-55.19,80.96-66.38,97.91l10.92,7.23c3.43,2.28,4.38,6.95,2.1,10.38h0c-2.28,3.44-6.94,4.38-10.38,2.11l-69.62-46.15c-3.43-2.27-4.38-6.94-2.11-10.38h0c2.28-3.44,6.94-4.38,10.38-2.11h0ZM69.73,376.46l23.04,15.27c10.94-16.56,39.94-60.21,64.85-95.74-4.21-2.17-8.52-4.69-12.93-7.61-4.4-2.92-8.41-5.9-12.05-8.94-23.02,36.79-51.93,80.49-62.91,97.03h0ZM129.85,255.69c7.5-12.28,13.7-22.92,17.46-30.24,4.48-8.73,5.07-15.46,3.36-20.26-.93-2.62-2.6-4.73-4.69-6.29-2.23-1.66-4.92-2.73-7.74-3.17-4.83-.75-9.89.34-13.4,3.42-1.29,1.13-2.5,2.53-3.58,4.17-3.71,5.6-5.83,13.61-4.83,22.82.98,9.08,4.99,19.27,13.42,29.55h0ZM180.56,289.3c12.75,3.76,23.7,3.48,32.44.85,8.87-2.67,15.43-7.74,19.13-13.34,1.08-1.64,1.91-3.3,2.45-4.92l.02-.02c1.46-4.41.49-9.49-2.09-13.65-1.5-2.42-3.54-4.49-5.94-5.89-2.25-1.32-4.84-2.04-7.61-1.87-5.09.29-11.05,3.46-17.35,10.99-5.28,6.3-12.66,16.17-21.05,27.86h0ZM42.81,389.36c-3.43-2.27-8.1-1.33-10.38,2.11h0c-2.28,3.44-1.33,8.1,2.1,10.38l48.55,32.17c3.43,2.27,8.1,1.33,10.38-2.11h0c2.28-3.43,1.33-8.1-2.1-10.38l-48.55-32.17h0ZM38.64,417.33c-3.43-2.27-8.1-1.33-10.37,2.1h0c-2.28,3.44-1.33,8.11,2.1,10.38l28.58,18.94c3.43,2.27,8.1,1.33,10.37-2.11h0c2.28-3.44,1.33-8.11-2.11-10.38l-28.57-18.94Z"/>
  </g>
</svg>